<?xml version="1.0" encoding="utf-8"?>
<!-- Generator: Adobe Illustrator 24.3.0, SVG Export Plug-In . SVG Version: 6.00 Build 0)  -->
<svg version="1.1" id="Layer_1" xmlns="http://www.w3.org/2000/svg" xmlns:xlink="http://www.w3.org/1999/xlink" x="0px" y="0px"
	 viewBox="0 0 824.8 708" style="enable-background:new 0 0 824.8 708;" xml:space="preserve">
<style type="text/css">
	.st0{fill:#202020;}
</style>
<path d="M198.3,505.7v-36.2h10.3c2.1-0.1,4.2,0.4,6.2,1.2c1.7,0.8,3.1,2,4.1,3.6c1,1.7,1.5,3.7,1.5,5.7c0,2-0.5,4-1.5,5.7
	c-1,1.6-2.4,2.9-4.1,3.8c-1.9,0.9-4,1.4-6.2,1.3h-5.8v14.9H198.3z M202.7,487.1h4.6c1.5,0,3-0.3,4.3-0.8c2.5-1,4.1-3.5,4-6.3
	c0.1-2.7-1.5-5.2-4-6.2c-1.4-0.5-2.8-0.8-4.3-0.8h-4.6V487.1z"/>
<path d="M262.1,506.4c-2.4,0-4.9-0.5-7.1-1.5c-2.2-0.9-4.2-2.3-5.8-4c-1.7-1.7-3-3.8-3.9-6c-1.9-4.7-1.9-10,0-14.7
	c0.9-2.2,2.2-4.3,3.9-6c1.7-1.7,3.6-3.1,5.8-4c4.5-1.9,9.7-1.9,14.2,0c2.2,0.9,4.2,2.3,5.8,4c7.2,7.4,7.2,19.2,0,26.6
	c-1.7,1.7-3.6,3.1-5.8,4C266.9,505.9,264.5,506.4,262.1,506.4z M262.1,502.1c1.8,0,3.6-0.4,5.3-1.1c1.6-0.7,3.1-1.8,4.3-3.1
	c1.2-1.3,2.2-2.9,2.9-4.6c1.4-3.7,1.4-7.7,0-11.4c-0.6-1.7-1.6-3.3-2.9-4.6c-1.2-1.3-2.7-2.3-4.3-3.1c-3.4-1.5-7.2-1.5-10.6,0
	c-1.6,0.7-3.1,1.8-4.3,3.1c-1.2,1.3-2.2,2.9-2.9,4.6c-1.4,3.7-1.4,7.7,0,11.4c0.6,1.7,1.6,3.3,2.9,4.6c1.2,1.3,2.7,2.3,4.3,3.1
	C258.4,501.7,260.3,502.1,262.1,502.1z"/>
<path d="M316,506.4c-1.6,0-3.3-0.2-4.9-0.8c-1.3-0.4-2.5-1.1-3.7-1.9c-0.9-0.6-1.8-1.4-2.5-2.2c-0.7-0.7-1.1-1.3-1.5-1.7l2.4-3.5
	c0.3,0.4,0.8,0.9,1.4,1.6c0.6,0.7,1.3,1.4,2.1,1.9c0.9,0.7,1.9,1.2,2.9,1.6c1.2,0.5,2.5,0.7,3.8,0.7c1.2,0,2.5-0.2,3.6-0.7
	c1-0.4,1.9-1.2,2.6-2.1c1.2-1.9,1.3-4.4,0.3-6.4c-0.5-0.8-1.2-1.5-2-2.1c-0.9-0.6-1.9-1.2-2.9-1.6c-1.1-0.5-2.3-1-3.6-1.5
	c-0.9-0.4-1.9-0.8-2.8-1.3c-0.9-0.5-1.8-1.1-2.6-1.8c-0.8-0.7-1.4-1.6-1.9-2.5c-0.5-1.1-0.8-2.3-0.7-3.5c0-1.3,0.3-2.6,0.8-3.8
	c1-2.5,3-4.4,5.5-5.4c1.4-0.6,2.8-0.8,4.3-0.8c1.4,0,2.7,0.2,4,0.7c1.2,0.4,2.3,1,3.4,1.7c0.9,0.6,1.7,1.3,2.3,2.1l-2.1,3.3
	c-0.5-0.7-1.2-1.3-1.9-1.8c-0.8-0.6-1.6-1-2.6-1.4c-1-0.4-2.1-0.5-3.1-0.5c-1.2,0-2.4,0.3-3.5,0.8c-0.9,0.5-1.6,1.3-2.2,2.2
	c-0.5,0.9-0.8,1.9-0.8,2.9c0,0.8,0.2,1.6,0.6,2.2c0.4,0.6,0.9,1.2,1.5,1.6c0.7,0.5,1.4,0.8,2.1,1.2c0.8,0.3,1.6,0.7,2.4,1
	c1.5,0.6,2.9,1.2,4.2,1.8c1.3,0.6,2.4,1.3,3.5,2.2c1,0.8,1.8,1.8,2.4,3c0.6,1.3,0.9,2.8,0.9,4.2c0.1,2-0.5,4-1.6,5.7
	c-1.1,1.6-2.6,2.8-4.3,3.6C320.2,506,318.1,506.4,316,506.4z"/>
<path d="M354.3,505.7v-36.2h4.5v16.2l15.4-16.2h5.5l-16.9,17.8l18.9,18.4h-6.2l-16.6-16.1v16.1L354.3,505.7z"/>
<path d="M405.9,505.7v-36.2h10.3c2.1-0.1,4.3,0.4,6.2,1.3c1.7,0.8,3.1,2,4.1,3.6c1,1.7,1.5,3.6,1.4,5.6c0,1.8-0.3,3.5-1.1,5.1
	c-0.7,1.5-1.8,2.7-3.2,3.6c-1.5,1-3.2,1.6-5,1.8l12,15.2H425l-11.3-14.8h-3.4v14.8L405.9,505.7z M410.3,487.1h4.6
	c1.5,0,3.1-0.3,4.5-0.9c1.2-0.5,2.2-1.4,2.9-2.4c0.7-1.1,1-2.5,1-3.8c0.1-2-0.7-3.8-2.2-5.1c-1.8-1.3-3.9-2-6.1-1.8h-4.6
	L410.3,487.1z"/>
<path d="M453.2,505.7v-36.2h8.5c3.5,0,6.3,0.8,8.2,2.3c2,1.7,3.1,4.2,2.9,6.8c0,3.9-1.7,6.6-5,8.1c2.3,0.2,4.5,1.3,6.1,2.9
	c1.5,1.7,2.2,3.9,2.1,6.2c0.1,1.9-0.4,3.7-1.4,5.3c-1,1.5-2.3,2.7-4,3.4c-1.9,0.8-4,1.2-6.1,1.2L453.2,505.7z M457.7,485.3h3.1
	c2,0.1,4.1-0.4,5.8-1.6c2.5-2.3,2.7-6.3,0.3-8.8c-0.1-0.1-0.2-0.2-0.3-0.3c-1.7-1.1-3.7-1.7-5.8-1.6h-3.1L457.7,485.3z M457.7,502.1
	h5.6c2.2,0.1,4.3-0.4,6.1-1.7c1.4-1.1,2.2-2.9,2.1-4.8c0.1-1.9-0.7-3.7-2.1-4.8c-1.7-1.2-3.9-1.9-6-1.7h-5.6L457.7,502.1z"/>
<path d="M501,505.7v-36.2h4.5v36.2L501,505.7z"/>
<path d="M559.7,505.7l22.3-32.2h-19.8v-4H590l-22.3,32.2h21.2v4L559.7,505.7z"/>
<path d="M611.6,505.7l14.3-36.2h4.2l14.3,36.2h-4.8l-4-10.6h-15.2l-4,10.6L611.6,505.7z M621.9,491.2h12.1l-6.1-15.8L621.9,491.2z"
	/>
<path d="M202.5,631.5v5.3l0.6,3.4c0,0.7-0.1,1.4-0.3,2.1c-0.2,0.7-0.3,1.4-0.3,2.1l-0.6,0.4l-1.1,0.4h-4.7l-3.8,1.7h-4.2l-2.5-1
	l-0.6-4.9c0-0.5,0-0.9,0.1-1.4c0.1-0.3,0.1-0.7,0.1-1l0.2-3.8V633c0-1.4,0-2.6,0.1-3.7s0.1-1.9,0.1-2.6v-0.6l1-0.8l-0.4-0.6v-1.3
	c0-1,0.1-2,0.2-3c0.1-0.9,0.2-2,0.3-3.3s0.2-3,0.3-5s0.2-4.8,0.2-8.3c0-0.6,0-1.2-0.1-1.8c-0.1-0.7-0.1-1.3-0.1-2
	c0.1-1.5,0.4-3,1-4.4l1.1-7.2l1.3-5.7l0.4-0.4v-1.1h0.4c0.1,0,0.2-0.3,0.2-0.8v-1.1l-0.2-1.5l0.6-0.4v-0.6l-0.4-0.2l0.4-0.6
	c0.2-0.2,0.4-0.5,0.4-0.8v-1.9c0-0.3,0.1-1.1,0.3-2.5s0.5-3,0.9-4.8c0.4-1.9,0.9-3.7,1.5-5.5c0.5-1.6,1.2-3.1,2.1-4.5
	c0.7-0.3,1.4-0.5,2.1-0.5c0.9-0.1,1.8-0.1,2.7-0.1h1.5l3,0.8h2.9c1.3,0.3,2.2,1.6,2.8,4.2s1.2,5.1,1.8,7.8l2.8-3.8
	c1.9-0.8,3.8-1.6,5.7-2.5s3.8-1.8,5.8-2.7c2-0.9,4.1-1.6,6.2-2.2c2.4-0.6,4.8-0.9,7.2-0.8c1.1,0.1,2.1,0.4,3,1
	c1.3,0.7,2.5,1.5,3.7,2.5c1.1,0.9,2.2,1.9,3.2,2.9c0.8,0.7,1.3,1.6,1.4,2.7l-0.4,1l1.1,0.2l0.2,2.8l-1,2.3l0.2,0.4
	c0,0.4-0.1,0.8-0.3,1.1c-0.2,0.5-0.4,1-0.6,1.6s-0.4,1.1-0.6,1.6c-0.1,0.4-0.3,0.7-0.5,1l-1.5,3.6l-0.2,2.3l-1.3,1.1l0.2,1l-0.6,0.6
	l0.6,1.1v1.1l-1.3,0.4l-0.4,3.4v1.8l0.4,0.6l-0.6,2.5c-0.5,0-0.8,0.3-1,1c-0.1,0.4-0.2,0.9-0.2,1.3l1.1,0.4l-0.4,0.8l-0.6,0.8
	l-0.6,2.5l-1.7,2.8l-1.3,3.4l-5.7,2.3l-4.2-2.3c-0.8,0-1.5,0.1-2.3,0.3c-0.7,0.2-1.5,0.3-2.3,0.3c-2.2,0.1-4.3-0.2-6.5-0.7
	c-2.2-0.5-4.4-0.8-6.6-1c-0.5-0.5-1.2-0.8-1.9-1c-0.8-0.2-1.5-0.3-2.3-0.5c-0.6-0.1-1.3-0.3-1.9-0.5c-0.5-0.1-0.8-0.5-0.8-1
	c0-0.1,0.1-0.3,0.2-0.4l-1.9-2.1l-1.6,7.2l0.4,0.6l-0.4,1.7l0.4,0.8c-0.7,0.8-1.1,1.7-1.1,2.8c-0.1,0.9-0.2,1.8-0.2,2.8l0.2,1.7
	L203,622l-0.6,0.8l0.2,1.9l-1,2.3l0.8,3L202.5,631.5z M187.9,615.8c-0.3,0.5-0.4,1-0.4,1.5v0.9c0.5,0,0.8-0.4,0.8-1.3v-0.4
	L187.9,615.8z M187.9,613.9l0.4,0.6c0.3-0.9,0.4-1.8,0.4-2.7V611c-0.2,0.4-0.3,0.8-0.5,1.2c-0.2,0.4-0.2,0.8-0.3,1.2V613.9z
	 M190.4,591.1c0,0.3,0.1,0.5,0.2,0.8c0.1,0.2,0.2,0.5,0.2,0.8l0.4-0.8v-3.2c-0.1,0.5-0.3,1-0.5,1.4
	C190.5,590.4,190.4,590.8,190.4,591.1L190.4,591.1z M190.8,596.1l0.4-2.5l-0.4-0.4l-0.4,1.7L190.8,596.1z M217.1,599.8h1.6
	c0.1,0,0.1,0,0.2-0.1c0.3-0.1,0.6-0.1,0.9-0.1h3.6c1.8,0.2,3.5-0.1,5.2-0.7c1.5-0.6,2.5-2,3.1-4.5l1-3.4l1.3-8l1.7-4l2.7-10.8
	L238,568c-0.4,0-0.8,0.1-1.1,0.3c-0.4,0.2-0.7,0.2-1.1,0.3l-4.5,1.7l-5.7,3.2h-1l-0.4,1.7c-0.4,0-0.7,0.2-1,0.4
	c-0.3,0.2-0.6,0.3-1,0.4l-1.7,2.8c-0.7,0-1.4,0.3-2,0.8c-0.7,0.5-1.4,1.1-2.1,1.7c-0.7,0.6-1.3,1.2-1.9,1.7c-0.3,0.3-0.6,0.6-1,0.8
	c-0.2,0.4-0.7,0.7-1.1,0.8c-0.3,0-0.5,0-0.8-0.1c-0.2-0.1-0.5-0.1-0.8-0.1c-0.9,0-1.6,0.8-2.1,2.4c-0.4,1-0.6,2.1-0.8,3.1
	c0,0.5,0.1,0.8,0.4,0.8l-1.3,1.9l0.4,0.4l-0.2,2.7c0,1-0.1,1.5-0.2,1.5s-0.3,0.7-0.4,2.1l1,0.2c0.3,0,0.6,0,1-0.1
	c0.3-0.1,0.7-0.1,1-0.1L217.1,599.8z"/>
<path d="M323.7,606.9c-0.4,0-0.8,0.1-1.2,0.2c-0.5,0.1-1.1,0.2-1.6,0.2h-0.4l-0.6-0.2c-0.5,0-1,0.2-1.4,0.5
	c-0.4,0.3-0.9,0.4-1.4,0.5l-2.1,1.1l-1.9-0.4l-2.9,0.8l-2.1-0.4c-0.6,0.2-1.2,0.5-1.7,0.9c-0.6,0.4-1.2,0.7-1.9,0.8l-1.7,0.2l-3,8.3
	c-0.4,1.1-0.7,2.3-1,3.3c-0.2,0.7-0.4,1.4-0.5,2.2v2.3l0.8,1h0.8c0.5,0,1.1,0.1,1.6,0.3c0.5,0.2,1.1,0.3,1.6,0.3h4.5
	c4.7,0.4,7.8,0.6,9.3,0.6h0.8c0.3,0,1,0.1,2.1,0.2s1.8,0.2,1.9,0.2s0.4,0,1-0.1c0.5-0.1,1.1-0.1,1.6-0.1c0.5,0,1,0,1.5-0.1
	c0.3,0,0.6-0.1,0.9-0.1l8.7,1.5c0.6,0,1.2,0.1,1.8,0.2c0.8,0.1,1.6,0.3,2.5,0.5c0.8,0.2,1.5,0.4,2.3,0.7c0.7,0.3,1,0.5,1,0.6
	c0,1.4-0.8,2.7-2.1,3.4c-1,0.6-2,1.3-2.9,2.1h-0.2c-2.5,0.6-5,0.9-7.5,1c-2.2,0.1-4.7,0.1-7.5,0.1h-7.4c-0.8-0.3-1.6-0.4-2.4-0.4
	h-2.6c-1.1,0-3.4,0.2-6.7,0.5s-6.5,0.5-9.6,0.5l-3.4,0.8c-0.9-0.1-1.8-0.3-2.9-0.6c-0.8-0.2-1.6-0.6-2.3-1.1l-4.7-5.5l-0.8-1.9v-3.2
	l1.5-3.2c0.1-0.6,0.2-1.1,0.4-1.7l0.6-1.1c0.2-0.6,0.5-1.3,0.8-1.9l1-1.9l0.4,0.6c0.2-0.4,0.4-0.9,0.4-1.3v-0.4l-0.8,0.4l-0.4-0.4
	c0-0.9,0.2-1.7,0.5-2.6c0.3-1.1,0.6-2.3,0.7-3.5c0.2,0.1,0.4,0.2,0.6,0.2c0.5,0,0.9-0.2,1.3-0.5c0.4-0.2,0.8-0.5,1.1-0.8l-1.1-0.2
	c0-1.1,0.3-2.3,0.9-3.2c0.7-0.9,1-2.1,1-3.2c-0.6,0-1.2,0.1-1.7,0.5c-0.4,0.3-0.7,0.6-1,1c-0.3,0.4-0.5,0.8-0.8,1.2
	c-0.3,0.5-0.8,0.9-1.3,1.2v-1.1c0.1-0.7,0.3-1.3,0.5-2c0.3-1.2,0.8-2.6,1.3-4.2c0.6-1.6,1.3-3.2,2.1-4.7c0.7-1.4,1.6-2.7,2.8-3.9
	l0.4,0.6c0.4-0.5,0.7-1.1,1-1.6c0.3-0.6,0.5-1.2,0.5-1.8v-0.6l-0.8,1.7l-0.8-0.4l0.8-2.3l0.4,0.4c0.3,0.2,0.6,0.2,1,0.2
	c0.1,0,0.4-0.7,0.7-2s0.5-2.3,0.7-2.9c-0.3,0.7-0.6,1.4-1,2c-0.3,0.4-0.5,0.8-0.9,1.2h-0.4c0.1-0.7,0.3-1.4,0.6-2.1
	c0.3-0.7,0.5-1.4,0.6-2.1l0.8-4V576l-4-3.2l-1.9-1.5c-0.3-0.1-0.4-0.5-0.6-1.2s-0.2-1.1-0.2-1.2c0-1,0.6-1.5,1.7-1.5h11
	c0.8-0.1,1.5-0.3,2.3-0.6l2.5-0.6l4.5,0.2c2-0.1,4-0.2,6-0.2c2,0,4-0.2,6-0.6h19.1c1.2,0.2,2.3,0.7,3.2,1.4c1.4,1,2.1,1.7,2.1,2.4
	c0.1,0.5-0.2,1-0.7,1.2c-0.4,0.1-0.6,0.5-0.7,0.9l0.2,0.9c0,0.3-0.7,0.5-2,0.7c-1.1,0.2-2.2,0.3-3.3,0.3h-3.2
	c-1.3,0-2.6,0.2-3.8,0.7c-0.9,0.4-1.9,0.9-2.8,1.4c-0.8,0.5-1.6,1-2.4,1.4c-0.7,0.4-1.5,0.6-2.3,0.7c0,0.5-0.4,0.9-1,1.1
	s-1.5,0.5-2.5,0.8s-1.9,0.5-2.9,0.8c-0.8,0.2-1.6,0.7-2.2,1.2c-1,1-2,2.1-2.8,3.3c-0.9,1.2-1.8,2.4-2.7,3.7c-1,1.4-2,2.9-2.8,4.4
	c-0.1,0.4,0.2,0.7,0.6,0.8c0.1,0,0.1,0,0.2,0c-0.2,1-0.8,1.9-1.6,2.5c-0.7,0.4-1,1.4-1,3c3,0,5.9-0.1,8.7-0.3s5.7-0.3,8.7-0.3h5.2
	c0.5,0,1.1,0.1,1.6,0.3c0.5,0.1,0.9,0.2,1.4,0.3l2.3,0.9v0.8l1.5-0.8l-0.4,1.9l-0.8,2.7c-0.3,0-0.6,0.2-0.8,0.4
	c-0.3,0.3-0.6,0.6-1,1c-0.5,0.4-1,0.8-1.6,1c-0.9,0.3-1.8,0.4-2.7,0.4c-0.9,0-1.7-0.1-2.5-0.2C325.3,607,324.5,606.9,323.7,606.9z
	 M285.8,612.2c-0.3,0.3-0.4,0.6-0.4,1v0.8c0.6-0.7,1.4-1.1,2.3-1.1v-0.6L285.8,612.2z"/>
<path d="M410.7,650.1c-0.3,0.1-0.7,0.2-1,0.3c-0.7,0.2-1.3,0.5-1.9,0.8c-0.7,0.4-1.3,0.8-1.9,1.2c-0.6,0.4-0.8,0.9-0.8,1.2v0.2
	c0,0.3,0.1,0.6,0.4,0.8l-1,1c-0.5-0.3-0.8-0.4-0.8-0.6s0-0.2,0.1-0.2s0.1-0.1,0.1-0.2h-0.2c-0.2,0-0.3,0.1-0.5,0.2
	c-0.2,0.1-0.4,0.3-0.7,0.4c-0.6-0.2-1.1-0.5-1.6-0.8c-0.3-0.3-0.6-0.6-0.8-1c-0.3-0.3-0.6-0.6-1-0.8c-0.5-0.3-1.1-0.4-1.7-0.4
	c0.3,0.4,0.6,0.7,0.9,1c0.5,0.6,0.7,1.3,0.6,2v0.4c-0.5,0-0.9-0.2-1.2-0.6c-0.5-0.4-0.9-0.8-1.2-1.3c-0.5,0-1,0.2-1.2,0.7
	c-0.3,0.4-0.6,0.8-0.9,1.2c-0.6-0.9-1.4-1.6-2.3-2.3c-0.9-0.7-1.8-1.5-2.6-2.3l0.4-1h-0.4c0-0.4-0.1-0.6-0.4-0.7
	c-0.3-0.1-0.6-0.2-1-0.4c-0.4-0.2-0.7-0.5-0.9-0.8c-0.3-0.5-0.4-1.1-0.4-1.7c0.1-1.7,0.5-3.3,1.1-4.9l-0.4-1.1
	c-0.1-0.4,0.2-0.8,0.6-0.9l1.3-0.5c0.5-0.2,1-0.5,1.3-0.8c0.4-0.6,0.7-1.3,0.6-2.1c-0.1-3.5,0.1-7.1,0.5-10.6c0.2-1.5,0.5-2.9,1-4.4
	c0.3-0.7,0.7-1.5,1-2.2c0.4-1.3,0.6-2.7,0.5-4.1c-0.5,0.5-0.9,0.8-1.1,0.8s-0.3-0.1-0.6-0.4l0.4-11.6c0.3-1.2,0.6-2.5,0.8-3.7
	c0.3-1.6,0.4-2.4,0.4-2.6l2.3-5.1v-1.7l0.2-0.8c0.1-1.3,0.3-2.6,0.7-3.8c0.3-0.9,0.6-1.6,0.9-2.2s0.5-1.2,0.8-1.9
	c0.3-1,0.6-1.9,0.8-2.9v-1.9l-7.4,1l-4.7,1.1h-1.3c-0.2,0-0.4,0.1-0.6,0.3c-0.2,0.2-0.5,0.3-0.8,0.3v-0.2c-0.8,0-1.1-0.1-1.1-0.4
	s-0.3-0.4-0.8-0.4c-0.1,0-0.3,0-0.4,0.1c-0.2,0.1-0.4,0.1-0.6,0.1h-1.3c-0.2,0-0.5,0.1-0.7,0.3c-0.3,0.2-0.6,0.3-0.9,0.3H379
	c-2.1,0-3.5-0.2-4.1-0.6s-0.8-0.5-0.7-0.4v-1c-1.5,0-2.5-0.8-3-2.6c-0.5-1.4-0.7-2.8-0.8-4.3l1.3-1.1l0.4-0.2c0.5,0,1,0,1.5,0.1
	c0.4,0.1,0.9,0.1,1.3,0.1c0.9,0,1.8,0,2.7-0.2c0.6-0.2,1.1-0.6,1.5-1.1h1.5c1.5,0.1,3.1-0.2,4.5-0.7c1.4-0.5,2.9-0.7,4.4-0.7
	c0.8,0,1.6,0.1,2.4,0.3c0.8,0.2,1.6,0.2,2.4,0.3h0.2l0.4-0.2c0.2,0.1,0.4,0.2,0.6,0.2c0.5,0,1.1-0.2,1.5-0.5c0.3-0.2,0.6-0.4,1-0.5
	l0.2,0.2c0.9-0.2,1.8-0.6,2.6-1.2c0.9-0.7,2-1.1,3.1-1.2c0.4,0,0.8,0,1.2,0.1c0.5,0.1,1.1,0.1,1.6,0.1c1.1,0,2.2-0.2,3.2-0.6h0.9
	c1.5,0,3-0.1,4.5-0.3c1.5-0.2,3-0.3,4.5-0.3h1c0.4,0,0.8-0.1,1.2-0.2c0.8-0.1,1.6-0.2,2.4-0.2h1.1c0.5,0,1,0.1,1.5,0.2h4.7
	c1.4,0,2.8,0.1,4.3,0.3c1.6,0.3,3.2,0.8,4.7,1.6c-0.3,0.3-0.4,0.6-0.4,1c0.1,0.7,0.1,1.3,0.3,2c0.1,0.7,0.2,1.3,0.3,2
	c0.1,0,0.2,0,0.1-0.1s0-0.1,0.1-0.1c0.1,0,0.3,0.1,0.4,0.2c-2,1.5-4.4,2.5-6.8,2.9c-2.4,0.4-4.4,0.8-6.1,1.2c-1,0.1-2,0.3-3,0.6
	c-1.8,0.4-5.1,1.1-10,2.1l3,1.7c-0.7,0.7-1.2,1.6-1.5,2.6c-0.4,0.9-0.5,1.9-0.6,2.9l1.7-0.6l-2.2,4.6v7.6c-0.9,0.5-1.5,1.4-1.3,2.5
	l1-0.6h0.3c0.3,0,0.4,0.3,0.4,1v0.6c0,0.4-0.1,0.8-0.2,1.1c-0.1,0.4-0.2,0.9-0.2,1.3l-1.7,1.3v3c0.4,0,0.7-0.2,0.8-0.6
	c0-0.1,0-0.1,0-0.2c0-0.4-0.1-0.6-0.2-0.7c-0.1-0.1-0.2-0.2-0.2-0.5c0-0.8,0.3-1.1,1-1.1s0.8,0.1,0.8,0.4v2.7
	c0.1,0.5-0.1,1.1-0.4,1.5l-0.8,0.2L415,609l-0.8-0.4c-0.3,0-0.4,0.3-0.5,1c-0.1,0.7-0.2,1.5-0.3,2.4c-0.1,0.8-0.2,1.7-0.2,2.6v1.5
	c0,0.5,0.1,0.9,0.2,1.3l0.4-0.4c0-0.3,0.1-0.6,0.2-1c0.1-0.2,0.2-0.5,0.2-0.8l-0.4-0.4v-0.8c0-0.3,0-0.6,0.1-0.8
	c0.1-0.3,0.4-0.5,1-0.5c0.4,0,0.6,0.4,0.6,1.3c0,0.4-0.1,0.8-0.3,1.1c-0.2,0.4-0.3,0.9-0.3,1.3c0,0.2,0,0.4,0.1,0.7
	c0.1,0.2,0.1,0.4,0.1,0.7c0,0.3-0.1,0.6-0.3,0.9c-0.2,0.3-0.3,0.5-0.3,0.8c0,0.5,0.1,1,0.2,1.4c0.1,0.5,0.2,1.1,0.2,1.6
	c0,0.4-0.1,0.9-0.4,1.2c-0.3,0.4-0.5,0.9-0.8,1.4l-1.1,1.7v7.4c-0.4,0.6-0.6,1.2-0.6,1.9c0,0.4,0,0.8,0.1,1.2c0.1,0.3,0.1,0.7,0.1,1
	L410.7,650.1z M394.4,622.4c-0.1,0.1-0.2,0.2-0.2,0.4c0,0.3,0.1,0.5,0.4,0.6c0.3,0.2,0.5,0.3,0.8,0.6v-0.6c0-0.3,0-0.7-0.1-1
	c0-0.3-0.3-0.6-0.6-0.6c0,0,0,0,0,0c-0.7,0.1-1.4,0.5-1.7,1.1c0.4-0.3,0.8-0.5,1.3-0.6L394.4,622.4z M394.4,620.3
	c-0.3,0-0.4,0.2-0.4,0.6s0.1,0.6,0.4,0.6c0.2,0,0.4-0.1,0.4-0.3c0,0,0-0.1,0-0.1C394.7,620.8,394.6,620.5,394.4,620.3z M410.9,619.8
	c0.7-3.4,1.1-6.9,1.1-10.4v-1.9l-1.1,3.6L410.9,619.8z M411.1,605.5l1.3,0.2c0-1.4,0.1-2.9,0.2-4.6s0.2-3.3,0.2-4.7l-0.4-1.9
	c-0.2,0.1-0.4,0.6-0.6,1.3c-0.1,0.8-0.3,1.6-0.4,2.6s-0.2,1.9-0.3,2.8s-0.1,1.5-0.1,1.7l0.4,1.3L411.1,605.5z"/>
<path d="M476.7,585.8c0.1-1.5,0.6-2.9,1.3-4.2c0.6-0.9,1.1-1.6,1.5-2.3l3.2-12.5c0.1-1.2,0.4-2.3,0.8-3.4c0.4-1,0.6-2.1,0.8-3.2h6.5
	l3.4-1.1h2.3c0.9,0.2,1.8,0.6,2.5,1.2c0.9,0.6,1.7,1.3,2.3,2.2l2.3,2.1c0.1,0.4,0.3,0.7,0.6,1c0.3,0.4,0.4,0.8,0.4,1.2v0.9
	c-0.1,0.6-0.2,1.2-0.4,1.8c-0.3,0.9-0.5,2-0.9,3.1c-0.3,1.1-0.7,2.2-1.1,3.3c-0.3,0.8-0.7,1.5-1.2,2.2v1.5l1.9-0.6l-2.5,4.7
	l-0.6,8.2c-0.9,0.7-1.3,1.7-1.3,2.8l1.1-0.6h0.2c0.3,0,0.4,0.3,0.4,0.8l-0.2,0.8c0,0.5-0.1,1-0.2,1.4c-0.1,0.5-0.2,0.9-0.2,1.4
	l-0.8,0.6l3.6-1.9c0.5-0.4,0.7-0.9,0.8-1.5l-0.4,0.2c0.5-0.6,1-1.3,1.6-1.9s1.1-1.2,1.6-1.7l0.2-0.4c0.6-0.7,1.4-1.2,2.3-1.3
	c0.3,0,0.5,0,0.8,0.1c0.2,0,0.4,0.1,0.6,0.1l-0.2-0.4c1.7-1,3.2-2.2,4.5-3.6c1.7-1.8,3.6-3.8,5.8-6.1c0.9-0.5,1.8-1,2.8-1.4
	c2-1.1,3.9-2.4,5.6-3.9l-0.6-0.4l1.9-1.9c0.5-0.3,1-0.8,1.4-1.2l1.4-1.4l0.4-0.4h-0.8l2.5-2.5c-0.1-0.1-0.2-0.2-0.2-0.4
	c0-0.6,0.3-1.3,0.8-1.7c0.3-0.4,0.8-0.7,1.3-0.8c0.3,0,0.4,0.1,0.4,0.3s0.1,0.3,0.4,0.3l1.1-0.2c0.1,0,0.3,0.2,0.6,0.6
	c0.2,0.4,0.6,0.6,1,0.6c0.2,0,0.4-0.1,0.6-0.2c0.2-0.1,0.4-0.2,0.6-0.2c1,0,2,0.9,3,2.7c0.9,1.3,1.4,2.8,1.5,4.4v0.8l-1.7,2.2
	c-1,1.2-2.2,2.2-3.5,2.9c-1.6,1-2.2,1.4-2,1.4L536,582l-1.5,1.2c-0.4,0.3-0.9,0.8-1.6,1.4s-1.6,1.5-2.8,2.8s-2.9,2.8-5.2,4.8
	c0.2,0.5,0.5,1,1,1.3c0.5,0.3,0.7,0.9,0.7,1.5l0.2,1.7c-0.6,0.4-1,1.1-1,1.9c-0.1,0.9-0.2,1.8-0.3,2.8c0.3,0.6,0.5,1.1,0.7,1.5
	c0.2,0.5,0.3,1,0.3,1.5l0.2,1.1c-0.2,0.2-0.5,0.4-0.8,0.4c-0.3,0-0.4,0.1-0.3,0.2c0.1,1,0.4,1.6,0.8,1.9s0.7,0.9,0.7,1.9
	c0,0.6-0.1,1-0.4,1c0.3,0,0.3,0.1,0.3,0.3s0.1,0.3,0.5,0.5l0.4,1.3l0.5,0.9c0.2,0.4,0.3,0.7,0.3,1.1h0.4c0.6-0.1,1-0.7,1-1.7v-1.1
	l-0.4-0.8c0-0.5,0.1-1,0.2-1.4c0.1-0.7,0.3-1.1,0.6-1c0.4,0,0.7,0.3,1,1c0.3,0.8,0.5,1.6,0.7,2.4c0.2,0.9,0.4,1.7,0.6,2.6
	c0.1,0.5,0.2,1,0.5,1.4c0,1,0.7,2.5,2.1,4.4c1.4,1.9,2.4,4.1,3,6.4l0.2,2.1l0.6,0.8c0.8,1.2,1.2,2.6,1.3,4c0.1,1.5,0.5,2.9,1.1,4.2
	l0.4,0.8l-0.4,0.4c1,0.7,1.8,1.7,2.4,2.8c0.5,1,1,2.1,1.2,3.2c0.3,1.1,0.4,2,0.6,2.9c0.1,0.9,0.3,1.4,0.6,1.5l1.1,4.4
	c0.1,0.3,0.4,0.8,0.9,1.5l1.4,2.5c0.5,0.9,1.1,2,1.9,3.4v1.9c0.6,0.7,1.1,1.5,1.6,2.4c0.8,1.3,1.3,2.2,1.6,2.6l0.2,1
	c0,0.1,0,0.2,0.1,0.3c0.1,0.1,0.1,0.3,0.1,0.5l1.1,4.2h-2l-1-0.8c-0.5-0.3-1.1-0.5-1.7-0.6l-0.8,0.4l0.8,1.3l-1.3,0.6l-1.1-0.4
	l-7,3.6l-0.4-3c-0.1-0.1-0.2-0.2-0.4-0.2c-0.3,0-0.6,0.2-0.9,0.4c-0.4,0.3-0.9,0.6-1.4,0.8l-1.5-1.7l-0.6-1.1
	c-0.8-1-1.5-2.2-1.9-3.4c-0.6-1.4-1.1-2.9-1.5-4.4l-8-21.2v0.2c-0.6,0.1-1.2-0.4-1.3-1c0-0.1,0-0.2,0-0.3h-0.4l-0.4-0.8
	c-0.2-0.4-0.2-0.7-0.2-1.1l0.4-0.6l0.8,0.4L524,641c0-0.6-0.3-1-0.8-1.1l-0.6,0.9c-0.5-0.3-1-0.7-1.1-1.3c-0.1-0.5-0.3-1-0.4-1.5
	v-0.4l0.2,0.4l0.4-0.8l-0.4-0.6l-0.6,0.4l0.2-1.9c0-0.2,0-0.3,0.1-0.5c0.1-0.1,0.1-0.2,0.1-0.5v-1c-0.3,0.4-0.5,1-0.6,1.5l-0.2-0.8
	c0-0.6,0.3-1.2,0.8-1.6c0.5-0.6,0.8-1,0.8-1.2c0-0.5-0.1-0.8-0.2-0.8c0.1,0,0.2-0.1,0.2-0.4c0-0.6-0.1-1.2-0.4-1.7
	c-0.2-0.3-0.4-0.6-0.8-0.8c0-0.1,0.1-0.2,0.1-0.2c0,0,0,0,0,0c0.3,0,0.4-0.1,0.4-0.2c0-0.5-0.1-0.8-0.4-0.8
	c-0.3-0.1-0.6-0.4-0.8-0.7l-0.4,1h0.8l-1.5,0.8l0.6,0.8h0.4v1.3l-0.4,0.4l0.6,0.4c0.4,0,0.6-0.4,0.6-1.3l0.6,0.8
	c-0.8,0.5-1.2,1.4-1.1,2.3c0,0.4,0,0.8,0.2,1.1c-0.1,0-0.3-0.3-0.6-0.8s-0.5-1-0.8-1.6s-0.5-1.1-0.7-1.6c-0.1-0.3-0.2-0.6-0.3-1
	l0.2-1.1l-0.4-0.2v-0.9l-1.2-3.9h-0.6c-0.1,0-0.2,0-0.2,0.1s-0.1,0.1-0.2,0.1c0.3-0.2,0.5-0.6,0.6-0.9v-0.4l-0.6,0.6l-0.2-0.4
	c0-0.4,0.1-0.7,0.2-1c0.1-0.3,0.2-0.6,0.2-0.8c-0.2-1.1-0.9-2.2-1.8-2.8c-0.9-0.6-1.6-1.6-1.8-2.7v-0.9c-0.1-1.4-0.3-2.7-0.7-4.1
	c-0.3-1.1-0.5-2.2-0.5-3.3l-0.2-1.1l-2.1,1.9h-0.4c-0.9,0-1.4,0.2-1.6,0.7c-0.3,0.6-0.7,1.2-1.2,1.6l-8,7.8c0.1,0.1,0.2,0.2,0.2,0.4
	c0,0.4-0.2,0.7-0.5,1c-0.3,0.2-0.4,0.5-0.5,0.8c0,0.2,0.1,0.4,0.2,0.6c0.1,0.2,0.2,0.4,0.2,0.6c-0.1,1.1-0.6,2.1-1.3,3
	c-0.5,0.7-1,1.4-1.3,2.1l-0.2,3.8c-0.7,0.5-1,1.3-0.9,2.2c0.1,0.8,0,1.6-0.1,2.4l-0.4,0.2l-0.2,5.7c0,0.3-0.1,0.9-0.2,2
	s-0.3,2.2-0.5,3.3s-0.3,2.2-0.5,3.1s-0.3,1.4-0.4,1.4l-1.7-0.4l-1.5-1.7v2.4l0.6,1.1c-0.5,0.5-1,1-1.3,1.6c-0.6,0.9-1,1.9-1.1,2.9
	v0.2c0,0.3,0.2,0.6,0.4,0.8l-1,1c-0.5-0.3-0.8-0.4-0.8-0.6s0-0.2,0.1-0.2s0.1-0.1,0.1-0.2H485c-0.2,0-0.3,0.1-0.5,0.2
	c-0.2,0.1-0.4,0.3-0.7,0.4c-0.6-0.2-1.1-0.5-1.6-0.8c-0.3-0.3-0.6-0.6-0.8-1c-0.3-0.3-0.6-0.6-1-0.8c-0.5-0.3-1.1-0.4-1.7-0.4
	c0.3,0.4,0.6,0.7,1,1c0.5,0.6,0.7,1.3,0.6,2v0.4c-0.5,0-1-0.2-1.3-0.6c-0.5-0.4-0.9-0.8-1.2-1.3c-0.5,0-1,0.3-1.2,0.7
	c-0.3,0.4-0.6,0.8-0.8,1.2c-0.8-1-1.8-1.7-2.9-2.3c-1.2-0.6-2.3-1.4-3.3-2.3l0.4-2.5v-3.4l-0.4-0.8c-0.9-0.1-1.3-0.8-1.3-2.1
	c0-1.1,0.2-2.2,0.6-3.3c0.3-1,0.5-1.9,0.6-2.9v-4.2c0-1.5,0.2-2.9,0.5-4.4c0.3-1.4,0.6-2.8,0.8-4.4l0.4-2.3c0-0.3,0-0.9,0.1-1.9
	s0.2-2.1,0.3-3.3s0.2-2.3,0.3-3.2s0.1-1.5,0.1-1.8l1-3.4c0.1-1.9,0.4-3.8,0.8-5.7c0.4-1.5,0.7-3,0.8-4.5v-4.2l0.8-1.7
	c0.2-1.1,0.4-2.1,0.8-3.1C476.2,588,476.5,586.9,476.7,585.8z M488.8,633.4c0.3-0.9,0.7-2.5,1.2-4.7s1.1-4.7,1.7-7.2
	c0.6-2.5,1.1-4.9,1.6-7.2s0.8-3.8,1-4.7l0.4-2.1l-2.3,4.2L488.8,633.4z M493.3,601.4l1.1,0.2c0.3-1.4,0.5-2.9,0.7-4.5
	s0.3-3.2,0.5-4.5l-0.4-2.8c-0.3,0.1-0.5,0.6-0.7,1.4s-0.4,1.8-0.6,2.8s-0.3,2.1-0.5,3c-0.1,0.6-0.2,1.2-0.2,1.8l0.2,1.5L493.3,601.4
	z M495.8,613.2c0,0.3,0.2,0.5,0.5,0.7c0.3,0.2,0.6,0.4,0.8,0.7l0.6-11.4c-0.1,0.6-0.3,1.5-0.6,2.6s-0.5,2.2-0.7,3.2s-0.3,2-0.5,2.8
	S495.8,613,495.8,613.2L495.8,613.2z M518.4,616.6c0.4,0,0.6-0.1,0.6-0.2c0-0.1-0.1-0.3-0.2-0.4h-0.6v-1.1L518,615
	c-0.1,0.2-0.2,0.4-0.2,0.6v0.8L518.4,616.6z M518,617.7c0.5,0.4,0.8,0.8,1.1,1.3v-1.5c-0.1,0-0.3,0-0.4-0.1
	c-0.1-0.1-0.2-0.1-0.4-0.1L518,617.7z M519.3,622.3v0.4c-0.1,0.9-0.5,1.7-1.1,2.3h0.4c0.5,0.1,0.9-0.2,0.9-0.7c0-0.1,0-0.2,0-0.3
	l0.6,0.4l-0.4,0.6c0.4-0.1,0.7-0.4,0.9-0.8c0.2-0.4,0.3-0.7,0.3-1.1l-0.8,0.6l-0.2-2.1l-0.6-0.2c0.3-0.2,0.5-0.4,0.6-0.8
	c0.1-0.3,0.2-0.6,0.2-1c-0.5,0-1,0.2-1.4,0.6c-0.4,0.4-0.7,0.9-0.7,1.5c0,0.3,0.2,0.3,0.7,0.3S519.3,622,519.3,622.3L519.3,622.3z
	 M519.7,608.6c-0.6,0.3-1,1-0.9,1.7h0.9V608.6z M519.7,613.5c0,0.2,0,0.5,0.1,0.7c0.1,0.2,0.4,0.3,1,0.3l-0.2-1.1h-0.4v-1.7
	c-0.2,0.3-0.3,0.7-0.5,1C519.7,612.9,519.7,613.2,519.7,613.5L519.7,613.5z M520.3,609.2c0.2,0.4,0.3,0.9,0.4,1.3
	c0.1,0.5,0.2,1,0.2,1.5h0.8l-0.2-3.6c0-0.6-0.3-1-0.8-1l-0.8,0.4L520.3,609.2z M526,628.5c0.4,0.7,0.8,1.4,1,2.2
	c0.3,1,0.6,1.9,1,2.8s0.6,1.8,0.8,2.5s0.4,1,0.7,1h0.6l-0.6-0.4l-1.7-7.2l-0.4,0.2c-0.1-1.7-0.6-3.3-1.4-4.7
	c-0.8-1.4-1.2-2.9-1.2-4.5v-1l-0.8,0.2l0.8-1c-0.2-0.6-0.7-0.9-1.3-1l0.4-0.4l-0.6-1.1v-1.7c0-0.4-0.2-0.9-0.7-1
	c-0.4-0.2-0.7-0.4-1-0.7l-0.4,0.2c0.1,0.6,0.2,1.2,0.5,1.8c0.2,0.5,0.4,1.1,0.5,1.6l-0.4,0.8l-0.2-1c-0.1,0-0.2-0.1-0.2-0.1
	c0,0,0,0,0,0c0-0.1-0.1-0.2-0.4-0.2v2.3h0.6l-0.2,1.1c0,0.5,0.1,1.1,0.4,1.5c0.2,0.5,0.3,1,0.3,1.5h-1l0.4,1.7l0.6-1.3l0.8,0.2
	l0.6-0.6l0.4,0.6c0,0.3-0.2,0.4-0.6,0.5s-0.6,0.4-0.6,1c0,0.1,0.2,0.2,0.6,0.2c0.3,0,0.5,0,0.8-0.2c0.1,0.2,0.3,0.4,0.5,0.5
	c0.2,0.1,0.3,0.2,0.3,0.3l0.2,0.4l-1-0.6c-0.3,0-0.7,0-1,0.1c-0.3,0.1-0.5,0.4-0.5,1l1-0.2l-0.2,0.4h0.6c0.4,0,0.7-0.1,1-0.3
	c0.3-0.2,0.7-0.2,1-0.3L526,628.5z M525.2,637c0,0.4,0.2,0.8,0.6,1c0.2,0.2,0.5,0.3,0.8,0.4v-0.8c0-1.2-0.3-2.3-0.8-3.4l-0.8,0.6
	l-0.8-0.8v0.6c0,0.7-0.4,1.4-1.1,1.7l0.6,0.2c-0.3,0.5-0.5,0.8-0.7,0.9c-0.5,0.3-0.9,0.6-1.2,1l2.5-1l0.6-1c0,0.1,0.3,0.2,0.8,0.2
	L525.2,637z M522.2,633.8c0,0.3,0,0.5,0.2,0.8l0.8,0.4l0.2-0.6l-0.2,0.2c-0.1,0-0.2-0.3-0.2-0.8v-0.6h-0.4L522.2,633.8z M523.8,630
	c0,0.6,0.1,1.2,0.4,1.7c0.3,0.6,0.5,1.2,0.8,1.7v-2.8c0.3-0.1,0.6-0.4,0.6-0.8c-0.2-0.6-0.4-1.2-0.6-1.8c-0.3-1-0.5-1.5-0.8-1.6
	c-0.3,0.4-0.5,0.8-0.7,1.2c-0.2,0.5-0.3,0.9-0.3,1.4c-0.1,0.4,0.2,0.7,0.6,0.8c0.1,0,0.1,0,0.2,0L523.8,630z M526.8,635.9
	c0,0.3,0.1,0.6,0.2,0.9c0.1,0.3,0.2,0.6,0.4,1l0.9,1.3v-0.6c-0.2-0.6-0.3-1.2-0.4-1.8c0-0.7-0.5-1.3-1.1-1.6V635.9z M526.9,620.1
	c0.1,0.5,0.2,1,0.4,1.5c0.3,0.8,0.5,1.5,0.8,2.4c0.3,0.7,0.6,1.5,1,2.2c0.3,0.6,0.6,0.9,0.8,0.9l-0.2-0.4c-0.1-0.5-0.3-1.2-0.4-2
	c-0.1-0.8-0.3-1.6-0.6-2.4l-0.8-2.8l-0.8-1c0,0.3-0.1,0.5-0.2,0.8C527,619.6,526.9,619.8,526.9,620.1L526.9,620.1z M530.3,629.6
	c0,1.1,0.1,1.8,0.4,1.9l0.6,0.2l-0.2-0.2c0-0.4,0-0.8-0.1-1.1C531,630,530.7,629.7,530.3,629.6L530.3,629.6z M530.3,640.1l1.7,7.2
	c0.3,1,0.5,2,0.7,3c0.2,1,0.4,2,0.7,3h0.4c-0.1-0.9-0.2-1.8-0.4-2.7c-0.3-1.4-0.5-2.9-0.8-4.5s-0.6-3.1-1-4.5
	c-0.2-1-0.5-1.9-0.8-2.8L530.3,640.1z M531.3,633.8c0.1,0.5,0.3,1.2,0.7,2.2s0.8,1.4,1.4,1.4V637c-0.1-0.5-0.4-1.3-0.8-2.4
	s-0.7-1.9-0.9-2.6c0,0.3-0.1,0.5-0.2,0.8c-0.1,0.2-0.2,0.4-0.2,0.6L531.3,633.8z M532.9,631.3c-0.1-0.1-0.1,0,0.2,0.4
	c0.2,0.3,0.3,0.6,0.4,1h0.6c-0.1-0.6-0.3-1.3-0.6-2.2s-0.5-1.5-0.8-2.2L532.9,631.3z"/>
<path d="M626.2,606.9c-0.4,0-0.8,0.1-1.2,0.2c-0.5,0.1-1.1,0.2-1.6,0.2H623l-0.6-0.2c-0.5,0-1,0.2-1.4,0.5c-0.4,0.3-0.9,0.4-1.4,0.5
	l-2.1,1.1l-1.9-0.4l-2.8,0.8l-2.1-0.4c-0.6,0.2-1.2,0.5-1.7,0.9c-0.6,0.4-1.2,0.7-1.9,0.8l-1.7,0.2l-3,8.3c-0.4,1.1-0.7,2.3-1,3.3
	c-0.2,0.7-0.4,1.4-0.5,2.2v2.3l0.8,1h0.8c0.5,0,1.1,0.1,1.6,0.3c0.5,0.2,1.1,0.3,1.6,0.3h4.6c4.7,0.4,7.8,0.6,9.3,0.6h0.8
	c0.3,0,1,0.1,2.1,0.2s1.8,0.2,1.9,0.2c0.3,0,0.7,0,1-0.1c0.5-0.1,1.1-0.1,1.6-0.1c0.5,0,1,0,1.5-0.1c0.4-0.1,0.7-0.1,0.8-0.1
	l8.7,1.5c0.6,0,1.2,0.1,1.8,0.2c0.8,0.1,1.6,0.3,2.5,0.5c0.8,0.2,1.5,0.4,2.3,0.7c0.7,0.3,1,0.5,1,0.6c0,1.4-0.8,2.7-2.1,3.4
	c-1,0.6-2,1.3-2.8,2.1h-0.2c-2.5,0.6-5,0.9-7.5,1c-2.2,0.1-4.7,0.1-7.5,0.1h-7.5c-0.8-0.3-1.6-0.4-2.4-0.4H613
	c-1.1,0-3.4,0.2-6.7,0.5s-6.5,0.5-9.6,0.5l-3.4,0.8c-0.9-0.1-1.8-0.3-2.8-0.6c-0.8-0.2-1.6-0.6-2.3-1.1l-4.7-5.5l-0.8-1.9v-3.2
	l1.5-3.2c0.1-0.6,0.2-1.1,0.4-1.7l0.6-1.1c0.2-0.6,0.5-1.3,0.8-1.9l1-1.9l0.4,0.6c0.2-0.4,0.3-0.9,0.4-1.3v-0.4l-0.8,0.4l-0.4-0.4
	c0-0.9,0.2-1.7,0.5-2.6c0.4-1.1,0.6-2.3,0.7-3.5c0.2,0.1,0.4,0.2,0.6,0.2c0.5,0,0.9-0.2,1.3-0.5c0.4-0.2,0.8-0.5,1.1-0.8l-1.1-0.2
	c0-1.1,0.3-2.3,1-3.2c0.7-0.9,1-2.1,1-3.2c-0.6,0-1.2,0.1-1.7,0.5c-0.4,0.3-0.7,0.6-1,1c-0.3,0.4-0.5,0.8-0.8,1.2
	c-0.3,0.5-0.8,0.9-1.3,1.2v-1.1c0.1-0.7,0.3-1.3,0.5-2c0.3-1.2,0.8-2.6,1.3-4.2c0.6-1.6,1.3-3.2,2.1-4.7c0.7-1.4,1.6-2.7,2.8-3.9
	l0.4,0.6c0.4-0.5,0.7-1,1-1.6c0.3-0.5,0.5-1.2,0.5-1.8v-0.6l-0.8,1.7l-0.8-0.4l0.8-2.3l0.4,0.4c0.1,0.1,0.4,0.2,1,0.2
	c0.1,0,0.3-0.7,0.7-2s0.5-2.3,0.7-2.9c-0.3,0.7-0.6,1.4-1,2c-0.3,0.4-0.5,0.8-0.8,1.2h-0.4c0.1-0.7,0.3-1.4,0.6-2.1
	c0.3-0.7,0.5-1.4,0.6-2.1l0.8-4V576l-4-3.2l-1.9-1.5c-0.3-0.1-0.5-0.5-0.6-1.2c-0.1-0.4-0.2-0.8-0.2-1.2c0-1,0.6-1.5,1.7-1.5h11
	c0.8-0.1,1.6-0.3,2.3-0.6l2.5-0.6l4.5,0.2c2-0.1,4-0.2,6-0.2c2,0,4-0.2,6-0.6h19.1c1.2,0.2,2.3,0.7,3.2,1.4c1.4,1,2.1,1.7,2.1,2.4
	c0.1,0.5-0.2,1-0.7,1.2c-0.4,0.1-0.7,0.5-0.7,0.9l0.2,0.9c0,0.3-0.7,0.5-2,0.7c-1.1,0.2-2.2,0.3-3.3,0.3h-3.2
	c-1.3-0.1-2.7,0.2-3.9,0.7c-0.9,0.4-1.9,0.9-2.8,1.4c-0.8,0.5-1.6,1-2.4,1.4c-0.7,0.4-1.5,0.6-2.3,0.7c0,0.5-0.3,0.9-1,1.1
	c-0.8,0.3-1.6,0.5-2.5,0.8c-1,0.3-1.9,0.5-2.8,0.8c-0.8,0.2-1.6,0.7-2.2,1.2c-1,1-2,2.1-2.8,3.3c-0.9,1.2-1.8,2.4-2.7,3.7
	c-1,1.4-2,2.9-2.8,4.4c-0.1,0.4,0.2,0.7,0.6,0.8c0.1,0,0.1,0,0.2,0c-0.2,1-0.8,1.9-1.6,2.5c-0.7,0.4-1,1.4-1,3c3,0,5.9-0.1,8.7-0.3
	c2.8-0.2,5.7-0.3,8.7-0.3h5.3c0.5,0,1.1,0.1,1.6,0.3c0.5,0.1,0.9,0.2,1.4,0.3l2.3,0.9v0.8l1.5-0.8l-0.4,1.9l-0.8,2.7
	c-0.3,0-0.6,0.2-0.8,0.4c-0.3,0.3-0.6,0.6-1,1c-0.5,0.4-1,0.8-1.6,1c-0.9,0.3-1.8,0.4-2.7,0.4c-0.9,0-1.7-0.1-2.6-0.2
	C627.9,607,627.1,606.9,626.2,606.9z M588.3,612.2c-0.3,0.3-0.4,0.6-0.4,1v0.8c0.6-0.7,1.4-1.1,2.3-1.1v-0.6L588.3,612.2z"/>
<path class="st0" d="M282.9,266.1l-3.6-3c0,0.1,0.2,0.3,0.7,0.8c0.3,0.2,0.6,0.5,1.1,0.9L282.9,266.1z"/>
<path class="st0" d="M479.8,204.8c0.1,0.1,0.3,0.1,0.5,0.2C479.9,204.8,479.8,204.8,479.8,204.8z"/>
<path class="st0" d="M342.9,260.1l-0.2,0.3c-0.4,0.5-0.8,1-1.2,1.3C342,261.2,342.5,260.6,342.9,260.1z"/>
<path class="st0" d="M336.1,291.3L332,287l-4.2-4.1c-2.7-2.5-5.6-4.8-8.5-7c-5.5-4.1-10.6-7.5-15.4-10.8s-9.1-6.1-13.2-9.1l-6.2-4.5
	l-6.1-4.4c-4-2.9-7.8-5.8-11.6-9c-3.9-3.2-7.4-6.6-10.7-10.4c-1.5-1.8-2.9-3.7-4-5.8c-0.8-1.4-1.2-3-1.2-4.6c0-0.2,0-0.4,0.1-0.6
	c0-0.2,0.1-0.4,0.1-0.6c0.1-0.3,0.2-0.6,0.3-0.9c0.1-0.2,0.2-0.3,0.3-0.5c0.1-0.1,0.1-0.1,0.2-0.2c0.1,0,0.1-0.1,0.1-0.1
	s0,0,0.1-0.1s0,0,0.2,0c0.9,0,1.8,0.3,2.6,0.6c2.9,1.4,5.5,3.1,8,5.1c1.5,1.1,2.9,2.3,4.5,3.5c0.8,0.6,1.6,1.3,2.6,2l2.4,1.8
	c6.3,4.6,12.6,9.5,19.1,14.3c6.6,4.9,13.4,9.4,20.5,13.5l2.7,1.5l1.6,0.9c0.8,0.4,1.7,0.9,2.5,1.3c1.6,0.9,3.3,1.6,4.9,2.4l2.5,1.1
	l0.6,0.3l0.6,0.1l1.1,0.3l4.5,1.2c1.2,0.1,2.3,0,3.4-0.3c1.1-0.2,2.2-0.6,3.2-1.2c1.2-0.7,2.2-1.6,3.1-2.6c1.7-2.3,2.9-4.9,3.5-7.7
	c0.3-1.4,0.4-2.8,0.2-4.1c-0.1-0.7-0.2-1.4-0.4-2.1l-1-2.4l-0.5-1.2c-0.1-0.4-0.4-0.9-0.6-1.3c-0.6-0.9-1.2-1.7-1.8-2.6
	c-1.1-1.8-2.6-3.5-4-5.3l-1-1.3l-0.5-0.6l-0.3-0.4c-0.4-0.5-0.9-1-1.3-1.5c-0.9-1-1.8-2-2.7-3c-7.3-7.9-14.9-15-20.6-20.7
	c-1.2-1.7-2.3-3.5-3.3-5.3c-0.9-0.9-2-2.2-3-3.4l-3.2-3.7c-2.1-2.5-4.1-5-5.9-7.4l0.4,0.1c-6.2-6.4-12.3-14-15.3-17.1l0.4,0.1
	c-2.3-2.7-4.5-5.3-6.6-8l1.4,1.2c-2.4-2.8-4.8-5.7-7-8.6c-1.1-1.5-2.2-3-3.2-4.5c-0.2-0.4-0.5-0.7-0.8-1.1l-0.7-0.8l-0.9-1
	c-0.6-0.7-1.2-1.4-1.8-2c-1.1-1.2-2.1-2.5-3-3.9c-0.4-0.6-0.7-1.1-1-1.7c-0.1-0.3-0.2-0.5-0.3-0.7l-0.1-0.3l-0.2-0.6
	c-1-3.1-1.5-5.7-1.2-7.6c-0.3,0.2-0.7,0.4-1,0.6c0-0.5,0.1-1,0.2-1.6c0.1-0.3,0.1-0.6,0.3-0.9c0.1-0.2,0.2-0.4,0.4-0.5
	c0.3-0.3,0.5-0.6,0.8-0.8c0.4-0.3,0.8-0.6,1.2-0.7c0.4-0.1,0.8-0.1,1.2-0.1l2.1-0.4c0,0.1,0,0.2,0,0.3c0,0.1,0,0,0,0
	c0.1,0,0.2,0,0.3,0c0.5,0.1,0.9,0.3,1.4,0.5c1.4,0.7,2.6,1.6,3.8,2.6c0.7,0.5,1.4,1.1,2,1.7l1.1,0.9c0.1,0,0.1,0.1,0.1,0.1l0.1,0.1
	l0.3,0.3c1.5,1.6,3,2.9,4.4,4.2s2.7,2.5,3.8,3.7l4,4.5c2.8,3.2,5.8,6.6,9.1,10.6l-0.4-0.1c10.6,9.9,20.5,20.6,29.6,32l6.3,7.9l3.2,4
	l1.6,2l0.9,1.1l1,1.2c0.6,0.8,1.4,1.5,2.1,2.3c0.4,0.4,0.7,0.8,1.1,1.1l0.6,0.5c0.3,0.3,0.5,0.5,0.9,0.8c1.3,1,2.6,2.1,3.9,3.1
	c1.3,0.9,2.7,1.8,4.1,2.6c2.6,1.5,5.4,2.5,8.3,3c2.6,0.5,5.2,0.2,7.7-0.7c-0.6,0.2-1.2,0.4-1.7,0.7c0.4,0.1,0.7,0.1,1.1-0.1
	c1-0.2,1.9-0.5,2.8-0.9c0.5-0.4,1.1-0.8,1.6-1.2s0.9-1,1.3-1.6c0.7-1,1.2-2.2,1.5-3.4c0.5-2.5,0.5-5-0.2-7.5
	c-0.7-2.8-1.8-5.6-3.3-8.1c-0.8-1.3-1.5-2.6-2.3-3.8c-0.4-0.6-0.8-1.2-1.2-1.8l-0.6-0.9l-0.4-0.6c-4-5.4-7.2-8.5-8-8
	c-0.9-1.2-1.7-2.2-2.2-2.9s-1.1-1.6-1.5-2.2c-0.5-0.8-1-1.6-1.5-2.5c-0.5-1-0.1-1.1-0.3-1.9c-0.6,0.5-6.8-7.5-12-15l2.6,3.3
	c-5-7.1-9.9-14.2-14.6-21.5l1.5,5.1c-3.6-5.9-3.6-6.9-3.7-7.8s-0.3-1.6-3.8-7.1l-1,0.8c-4.6-8.3-7.7-15.3-11-22.2l-1-2.5
	c-0.1-0.2-0.1-0.4-0.4-1l-0.6-1.4c-0.8-1.9-1.5-3.6-2.3-5.5c-0.4-0.9-0.8-1.9-1.3-2.8l-0.7-1.5l-0.3-0.6l-0.2-0.6
	c-0.2-0.6-0.4-1.2-0.5-1.9c0-0.3,0-0.7,0.1-1c0-0.3,0.2-0.7,0.4-1c0.3-0.6,0.7-1.1,1.2-1.5c0.6-0.6,1.3-1.2,2-1.8l0.5-0.4
	c0.1-0.1,0.1-0.1,0.2-0.1c0.2-0.1,0.3-0.2,0.5-0.2c1.8-0.8,5.6-0.2,9.1,1.6c0.9,0.4,1.7,0.9,2.6,1.4l0.6,0.4
	c0.2,0.1,0.3,0.2,0.5,0.3c0.1,0,0.2,0.1,0.2,0.2l0.5,0.5c1.6,1.7,3.3,3.3,4.9,5l2.4,2.6l2.3,2.7c1.6,1.8,3,3.7,4.5,5.5
	c11.9,15.1,21.8,32.1,32.7,48.8c2.7,4.2,5.5,8.3,8.4,12.4c1.4,2.1,2.9,4,4.4,6l4.4,5.9c1.5,1.9,3,3.9,4.4,5.8c0.8,1,1.3,1.8,2,2.8
	l1.1,1.6c0.5,0.8,1.1,1.6,1.6,2.4c2,2.9,4.6,5.5,7.6,7.4c2.8,1.6,5.8,2.7,8.8,2.2c0.8-0.1,1.5-0.4,2.2-0.8c0.7-0.4,1.2-0.8,1.8-1.4
	c1-1.1,1.8-2.3,2.4-3.7c1.3-3.2,1.9-6.6,1.9-10c0-1.9-0.1-3.7-0.3-5.6c-0.1-1.5-0.4-3-0.8-4.4c-0.2-0.9-0.6-1.8-1-2.6l-0.8-1.6
	l-1.5-3.2c-2.1-4.2-4.2-8.4-6.5-12.5l-3.3-6c-1-2-2.1-4-3.1-5.9l-0.7-3.2c0.6-1.8-11.1-16.4-11.3-19.4l-4.6-7.1
	c-0.9-2.2-3.1-6.7-0.8-3.2c-2.1-4-4.5-7.9-7.2-11.6c-1.2-2.6-2.4-5.1-3.6-7.7c-1.8-3.1-3.8-6.2-5.3-8.7c-1.3-2.1-2.3-4.3-2.8-6.8
	c-0.1-0.4-0.2-0.9-0.3-1.3s-0.2-0.8-0.3-1.2c-0.2-0.7-0.4-1.3-0.6-1.7c-0.3-0.7-0.5-1.5-0.7-2.2c-0.3-1.1-0.4-2.3-0.2-3.4
	c0.1-0.7,0.3-1.3,0.5-2l0.2-0.6c0.1-0.2,0.1-0.4,0.1-0.5c0.1-0.2,0.1-0.3,0.2-0.5c0.4-0.8,1-1.4,1.8-1.8c2.2-1.3,4.8-1.8,7.4-1.4
	l1.3,0.2c0.1,0,0.2,0,0.3,0c0.3,0,0.5,0.1,0.8,0.2c0.6,0.2,1.2,0.4,1.8,0.7c1,0.5,1.9,1.2,2.7,2.1c3.3,5,6.7,10.3,10,15.8
	c4.7,8.4,10.6,18.5,17,29.6l10,17.3c3.5,6,6.9,11.9,10.3,18.1s6.9,12.3,10.5,18.4l5.3,8.9l5,8.7c3.3,5.8,6.6,11.4,10.1,16.7
	c3.3,4.9,6.9,9.7,10.8,14.1c1.8,2,3.6,3.8,5.6,5.6c0.5,0.5,1,0.9,1.7,1.4c0.3,0.2,0.7,0.5,1.1,0.8s0.8,0.5,1.2,0.8
	c1.6,1,3.3,1.8,5.1,2.2c1.8,0.4,3.6,0.4,5.4,0c1.8-0.5,3.3-1.4,4.6-2.7c1.3-1.3,2.4-2.9,3.2-4.6l0.6-1.3c0.2-0.5,0.3-0.8,0.4-1.2
	c0.3-0.7,0.6-1.6,0.8-2.2c1.6-5.3,2.4-10.7,2.7-16.2c0.3-5.4,0.1-10.7-0.1-15.9c-0.3-10.5-2-21.1-0.8-30.2c0.6-4.5,1.9-8.4,4.3-11.5
	l1-1.1c0.3-0.4,0.6-0.7,1-1.1l1.2-1c0.4-0.4,0.8-0.7,1.2-0.9c0.9-0.5,1.7-1.2,2.7-1.7l2.8-1.4c0.6-0.4,1.4-0.3,1.9,0.1
	c0.3,0.2,0.5,0.5,0.7,0.8c0.7,0.9,1.3,1.8,1.9,2.8c2.3,3.9,3.8,8.3,4.5,12.8c0.2,1.1,0.3,2.3,0.5,3.5s0.2,2.6,0.3,3.9
	c0.2,2.8,0.5,5.6,0.9,8.3c0.7,5.4,1.7,10.7,2.8,15.9c0.3,2.3,0.8,4.6,1.6,6.8c1.5,9,2.9,17.9,3.5,26.7c0.6,9,1,18.2,1.2,27.2
	c0,0,0.1,4.1,0.2,11s0,16.4-0.4,27.1c-0.1,2.7-0.2,5.5-0.4,8.3s-0.4,5.4-0.9,8.2c-0.8,5.6-2.2,11-4.2,16.3
	c-3.9,10.5-10.3,20.1-16.6,27.7c-2.5,3.3-5.7,6-9.2,8.1c-3.1,1.7-6.7,2.9-9.4,4.3c-2.1,1-4.1,2.3-5.7,3.9c-0.5,0.5-0.6,0.9-0.6,1.1
	s0.3,0.3,0.7,0.2c1-0.3,3-1.1,6.3-1.9c1.6-0.4,3.6-0.8,5.8-1.3c2.7-0.6,5.3-1.4,7.8-2.6c3.2-1.6,6.1-3.7,8.7-6.2
	c1.4-1.3,2.9-2.8,4.3-4.3l2.2-2.4l2.3-2.6c7.4-8.7,13-18.8,16.6-29.7c0,0.5-0.1,1-0.1,1.5c2.2-7,3.5-14.2,4-21.5
	c0.5-6.4,0.8-12.3,0.8-18c0.2-10.6-0.3-21.2-1.4-31.7c1.8-3.4-0.7-24.9-1.2-32.3l0.2,0.7c-1.8-9.3-3.2-18.7-4.4-28
	c-0.6-4.6-1.1-9.2-1.6-13.6c-0.2-2.2-0.5-4.4-0.7-6.6c-0.1-1.1-0.2-2.2-0.4-3.2c-0.1-1.2-0.3-2.4-0.5-3.6c0.1,0.4,0.3,0.6,0.5,1.4
	c0.3,1.3,0.5,2.6,0.6,3.9c-0.2-1.5-0.3-3.4-0.5-5.2s-0.6-3.8-1-5.7c-0.8-3.7-2.1-7.3-3.7-10.8c-1.3-2.7-2.8-5.3-4.5-7.7
	c-0.2-0.4-0.8-1.1-1.2-1.6l-1.1-1.4c-0.4-0.5-0.8-1-1.2-1.5c-2-1.6-4.4-2.6-7-2.8c-2.7-0.1-5.4,0.5-7.8,1.8l-3.1,1.6l-1.5,0.8
	c-0.5,0.3-0.9,0.6-1.4,0.9l-2.8,2l-2.7,2.4c-3.5,3.5-6.2,7.7-7.9,12.4c-1.5,4.4-2.2,9-2.2,13.6c-0.1,4.1,0.1,8.2,0.6,12.3
	c0.4,3.8,0.8,7.4,1.1,10.9s0.6,6.9,0.9,10c0.4,5.2,0.6,10.4,0.4,15.6l-0.2-1.3c0,2.2-0.2,4.4-0.6,6.5c-0.2,0.9-0.4,1.8-0.6,2.6
	c-0.1,0.4-0.2,0.7-0.3,1c-0.1,0.3-0.2,0.6-0.3,0.9c-0.3,0.9-0.9,1.7-1.6,2.3c-0.4,0.3-1,0.5-1.6,0.5c-0.7,0-1.3-0.2-1.9-0.5
	c-0.3-0.3-0.5-0.6-0.5-0.6c-0.2-0.1-0.3-0.1-0.5-0.2c-0.2-0.1-0.4-0.3-0.7-0.4c-0.6-0.4-1.2-0.9-1.8-1.4c-1.3-1.2-2.6-2.5-3.8-3.9
	c-2.7-3.1-5.2-6.4-7.5-9.8c-4.7-7-8.5-14.3-11.1-18.5l0.3-0.9c-2-3.5-4-7.1-6-10.7l-3.1-5.3l-3-5.2c1.4,2.7,2.9,5.3,4.3,7.9
	c-1.7-0.9-3.7-5-6.4-10.8c-3.2-7.2-6.9-14.1-11.1-20.8c-8-14.7-20.3-27.2-28.4-42.4c-5.1-6.5,5.1,5.4-1.9-4.7
	c0.7-0.9,3.5,4.6,2.6,1.4c-6.2-9.3-9-16.3-16.4-27.1c-0.4-0.6-0.9-1.2-1.4-1.7c-0.5-0.5-1-1-1.6-1.4c0-0.4,0-0.8-0.1-1.1
	c-2.3-1.6-4.9-2.8-7.6-3.4c-0.7-0.2-1.5-0.3-2.2-0.4h-0.2h-0.2l-1-0.2c-3.8-0.5-7.7-0.1-11.4,1.2c-2.5,0.8-4.8,2.2-6.8,4
	c-1,1-1.8,2.1-2.5,3.3c-0.4,0.6-0.6,1.2-0.9,1.8s-0.4,1-0.6,1.5c-0.8,2.1-1.2,4.4-1.3,6.6c-0.1,2.2,0.2,4.4,0.9,6.5
	c0.3,0.9,0.6,1.8,0.9,2.4s0.4,1.1,0.5,1.4c0.3,1.6,0.8,3.2,1.5,4.6c0.9,2.2,2,4.4,3.3,6.4c1,1.6,1.7,2.9,2.3,4
	c1.2,2.2,1.8,3.8,2.5,5.3c1.3,3.2,2.9,6.3,8.6,14.9l2.9,7.6c4.1,7.9,4.2,4.9,8.4,13.9c-0.9-0.2,5.4,11.3,2.1,6.5
	c2.4,5.1,5.1,10.1,8.1,15.1l4.5,7.5c1.5,2.5,2.9,5,4.4,7.7c0.7,1.3,1.4,2.7,2.2,4l1.1,2.1l0.5,1c0.1,0.1,0.1,0.2,0.1,0.3
	c0.1,0.4,0.2,0.9,0.3,1.3l0.2,0.9l0,0.4c0.1,0.5,0.1,0.9,0.1,1.4c-0.1,0.9-0.2,1.9-0.9,2.4c-0.4,0.2-0.9-0.1-1.3-0.4
	c-0.4-0.3-0.7-0.7-0.9-1.1c-0.3,0.2-0.8,0-1.3-0.5l-0.2-0.2l-0.1-0.1l-0.3-0.4l-1.1-1.6l-1.3-1.6l-1.2-1.5c-3.1-4-6.1-7.9-7.9-9.5
	c-0.7-1.4-1.6-2.7-2.6-3.9c-1.5-2.1-3.2-4.6-4.6-6.8c-2.8-4.4-4.3-7,0.8-0.5c0.9,1.1,2.3,3.1,2,3.1l1.8,1.1
	c-8.1-14.2-16.9-24.8-25.6-39.1c2.5,4.4,6,9.9,3.2,6.5c-2.7-4.4-5.4-8.8-8.3-13.2l2.3,2.4c-4.1-6.6-8.5-13.2-13.2-19.6
	c0.5,1,0.9,2.1,1.3,3.1c-1.6-2.4-3-4.4-4.3-6.3s-2.5-3.5-3.7-5.2c-1.4-1.8-2.8-3.5-4.3-5.1c-0.8-0.9-1.8-1.8-2.9-2.8l-1.7-1.5
	l-1.1-1c-0.3-0.2-0.6-0.4-0.9-0.6l-0.5-0.3l-0.3-0.2c-1.6-0.9-1.7-0.7-1.2-0.3c0.2,0.3,0.6,0.6,1.1,1l1,0.8c0.2,0.1,0.3,0.3,0.4,0.5
	l0.4,0.4c0.7,0.9,1.1,1.4,0.9,1.4c-0.3-0.2-0.7-0.5-1-0.8l-0.6-0.5l-0.4-0.4l-0.5-0.4l-1-0.7l-1-0.7c-2-1.3-4-2.5-6.2-3.4
	c-2.5-1.1-5.2-1.9-8-2.2c-3.5-0.5-7.1,0-10.3,1.5l-1.4,0.7c-0.4,0.3-0.9,0.6-1.3,0.9c-0.6,0.4-1.2,0.8-1.8,1.3s-1.2,1-1.8,1.5
	c-0.6,0.6-1.2,1.2-1.7,1.8c-1.3,1.5-2.4,3.2-3.2,5c-0.9,2.1-1.3,4.3-1.2,6.6c0,1.1,0.2,2.2,0.5,3.3l0.4,1.4c0.1,0.5,0.3,0.9,0.5,1.3
	s0.3,0.8,0.5,1.2s0.4,0.8,0.5,1.1l0.9,1.8c1.1,2.2,2.3,4.4,3.3,6.5c0.5,1.1,1.1,2.2,1.5,3.1c0.1,0.1,0.3,0.7,0.5,1.1l0.6,1.1
	l0.9,1.5c-0.1-2,2.5,2.4,5.2,6.9l-0.4,0.9c5.4,8.6,6,10.5,6.5,12.4c0.3,1.3,0.8,2.5,1.4,3.7c1.6,3,3.4,5.9,5.5,8.7l-1.5-1.2l4.4,3.6
	c5.7,7.3,6.8,9.6,8,12s2.7,5.1,9.5,12.9c-4.8-6.5-0.7-4.1,4.7,4.2l-2.1-1.6c3.3,4.4,4.6,5.6,6.7,8.8c-1.2-1.3-1.6-1.4-1.3-0.5
	c0.4,0.8,0.9,1.6,1.4,2.3c0.7,1,1.7,2.3,2.9,3.8l-4-3.6c1.8,1.9,3.5,3.7,5.1,5.5l2.4,2.7l1.2,1.4l0.3,0.4l0.1,0.2l0.1,0.1l0.2,0.2
	c0.3,0.9,0.7,1.7,1,2.6c0.2,0.5,0.3,0.9,0.4,1.4c0.1,0.5-0.1,1-0.5,1.3c-0.8,0.3-1.8,0.2-2.5-0.3c-0.7-0.3-1.2-0.8-1.5-1.4
	c-0.2-0.2-0.5-0.4-0.7-0.6l-1.6-1.6c-0.5-0.5-1-1-1.4-1.6l-1.5-1.8c-4.5-5.6-9.8-11.4-12.1-13.2c3.9,3.4-5.1-7.4-1.8-5
	c-5-4.5-18.6-18.3-23.2-24.5l1.1,1c-3.5-4.1-7-7.9-10.2-11.5l-4.8-5.2l-2.4-2.5l-1.3-1.4c-0.5-0.5-0.9-1-1.4-1.4
	c-1.9-1.8-3.6-3.3-5-4.6l-1-1l-0.5-0.5c-0.3-0.4-0.6-0.7-1-1l-1.5-1.3l-1.4-1.2c-2.1-1.7-4.3-3.3-6.6-4.6c-1.5-0.9-3.1-1.5-4.8-2
	c-2.2-0.6-4.4-0.7-6.6-0.3l2.4-0.1c-2.6-0.4-5.2-0.1-7.6,0.7c-2.4,0.8-4.6,2.2-6.5,3.9c-0.4,0.4-0.8,0.8-1.2,1.2
	c-0.2,0.2-0.4,0.4-0.5,0.6s-0.4,0.5-0.6,0.8c-0.4,0.5-0.8,1.1-1.2,1.7c-0.2,0.3-0.4,0.6-0.5,0.9l-0.3,1c-0.4,1.2-0.8,2.5-1,3.7
	c-0.2,1.1-0.3,2.2-0.4,3.3c0.3-0.4,0.3,0.5,0.5,1.9c0.2,1.7,0.6,3.4,1,5c0.9,3.4,2.1,5.8,2,3.9l0.5,1.3c0.2,0.4,0.5,1.1,0.7,1.6
	c0.5,1,1,1.9,1.6,2.8c1,1.5,2.1,3,3.2,4.4c1.1,1.3,2.1,2.6,3.2,3.8l1.4,1.6c0.1,0.1,0.1,0.1,0.1,0.2v0.1l0.1,0.2l0.6,1
	c3.3,5.1,6.6,9.8,9.7,13.9c6.1,8.1,11.4,14,15.9,16.5c8,9,8.5,11.4,12.2,16.3l-1.9-2.1c1.8,2.1,3.3,4.1,4.8,5.9s3,3.7,4.4,5.3
	c2.8,3.2,5.3,5.7,7.6,8.1c4.7,4.8,8.9,8.8,14.4,14.8c1.4,1.5,2.6,2.6,3.6,3.5c0.7,0.4,1.3,0.9,2,1.4c0.9,0.7,1.7,1.6,2.5,2.5
	c0.5,0.6,0.9,1.3,1.1,2.1c0.1,0.9-0.2,1.9-0.8,2.6c0.1-0.8-0.1-1.2-0.2-1.3s-0.3,0.1-0.5,0.4c-0.3,0.5-0.6,0.9-1,1.3
	c-0.2,0.2-0.5,0.4-0.9,0.4c-0.3,0-0.7,0-1-0.1c0.8,0.2,1.3-0.2,1-0.4c-0.3-0.1-0.6-0.2-0.9-0.3c-0.7-0.3-1.3-0.6-1.9-1
	c-0.5,0.1-1,0-1.4-0.1c0-0.1-0.2-0.2-0.1-0.3l-2-0.8c-0.3-0.1-0.5-0.2-0.8-0.3c0,0.1,0.5,0.5,1.5,1c-0.1,0.1,0,0.3,0.7,0.8
	c-0.6-0.4-1.2-0.8-1.8-1.2l-0.2-0.1l-0.1-0.1l-0.2-0.1l-0.9-0.5l-1.8-1.1c-2.5-1.5-5.1-3.2-7.4-4.7c-4.6-3.1-8.3-5.9-8.4-6.7
	l-16-11.5c-2.5-1.8-5-3.6-7.5-5.3l-1.8-1.3c-0.5-0.4-1.1-0.8-1.7-1.2l-3.5-2.6c-2.4-1.8-4.9-3.5-7.5-5c-2.8-1.7-5.7-2.9-8.9-3.7
	c-1.8-0.4-3.7-0.5-5.5-0.3c-2,0.3-3.8,1-5.5,2.1c-0.4,0.3-0.8,0.6-1.1,0.9c-0.4,0.3-0.7,0.6-1,1c-0.7,0.7-1.2,1.4-1.7,2.3
	c-0.9,1.6-1.6,3.3-2,5c-0.3,0.7-0.5,0.9-0.6,0.6c-0.1-0.8,0-1.6,0.2-2.3c0.9-3.9,3.4-7.2,6.9-9.2c-0.9,0.5-1.8,1.1-2.6,1.8
	c-0.4,0.3-0.7,0.6-1.1,1c-0.3,0.4-0.7,0.7-1,1.1c-1.2,1.5-2.1,3.2-2.7,5.1c-0.3,0.9-0.5,1.7-0.6,2.6c-0.1,0.4-0.1,0.9-0.2,1.3
	l-0.1,1.4c0,0.9,0,1.8,0.1,2.8c0.1,0.9,0.3,1.8,0.5,2.6c-0.2,0-0.5-0.7-0.8-2c-0.2-0.8-0.2-1.5-0.3-2.3c0-1,0-1.9,0.1-2.9
	c0.3-2.1,0.9-4.2,1.9-6.1c0.5-1,1.1-2,1.9-2.9c0.7-0.8,1.4-1.5,2.1-2.2c-0.7,0.6-1.4,1.2-2,1.8c-0.6,0.7-1.2,1.4-1.7,2.2
	c-0.9,1.5-1.6,3.1-2.1,4.8c-0.2,0.8-0.4,1.6-0.5,2.4c-0.1,0.9-0.2,1.8-0.2,2.7c0,1.7,0.3,3.5,0.7,5.1c0.9,3,2.2,5.9,4.1,8.5
	c1.7,2.4,3.5,4.7,5.6,6.7c8,8.2,17.5,14.5,26.7,21.7l4.4,2.2l1.1,0.9c0.1-0.2,1.2,0.4,2.7,1.2s3.5,2,4.9,2.9
	c2.3,2.5-1.1,1.4,8.6,7.6c3.6,2.8,9.1,6.2,14.6,9.8c2.8,1.8,5.5,3.7,8.1,5.7l1.8,1.5c0.6,0.5,1.2,1,1.8,1.6c1.2,1,2.3,2,3.3,3
	c-4.3-4.5-2.6-3.4-0.5-1.7c3.9,4,5.5,6.9,8.6,10l-0.5,1.1c-0.3-1.2,2.2,1.5,5,4.7s5.8,7,6.6,7.7c1.3,3-5.9-6.7-7.2-7.4
	c7,9,8.6,11.4,10.4,13.7l3.3,4.3c1.5,2,3.7,5,7.4,9.5c8.6,9.2-0.7-2.3,3.8,1.7c3.6,4.2,7.5,8.2,11.6,11.9c2.1,1.9,4.2,3.8,6.3,5.8
	s4.3,4.1,6.6,6.3l-2.4-3.3c6.5,5.7,13.4,10.9,20.7,15.5c3,1.9,6.2,3.6,9.5,5c3.2,1.4,6.6,2.4,10.1,3c1.3,0.1,2.4,0.1,3.5,0.1
	l3.4,0.1c1.2,0,2.3,0,3.4,0s2.3-0.3,3.3-0.4c4-0.5,8-1.5,11.8-2.9c1.7-0.7,3.4-1.4,5-2.3c0.8-0.4,1.5-0.8,2.3-1.3
	c0.4-0.2,0.7-0.5,1-0.8c0.3-0.3,0.6-0.6,0.9-0.9c2.1-2.2,4-4.6,5.8-7c0.9-1.1,1.7-2.2,2.5-3.3c0.4-0.5,0.8-1,1.3-1.5l0.5-0.6
	c0.2-0.2,0.3-0.4,0.4-0.7c0.2-0.4,0.6-1,0.9-1.5s0.6-1,1-1.5c0.6-1,1.3-1.8,1.9-2.7c2.1-2.7,4.4-5.2,6.8-7.6
	c3.8-3.7,5.3-5.5,5.3-6.2s-1.5-0.1-4,1.2c-3.5,1.9-6.8,4.3-9.9,6.9c-2,1.7-3.8,3.6-5.5,5.7c-0.5,0.5-0.9,1.1-1.3,1.7l-0.1,0.1v0.1
	l-0.1,0.1c-0.1,0.1-0.1,0.2-0.2,0.2h-0.1c0,0,0,0,0.1-0.1l-0.1,0.1l-0.2,0.2l-0.8,0.7l-1.5,1.4c-3.3,3.5-5.8,6.1-7.7,7.7
	c-0.2,0.2-0.5,0.4-0.7,0.5s-0.5,0.4-0.4,0.4s-0.1,0.1-0.1,0l-0.7,0.3c-2.7,1.2-5.5,2.1-8.4,2.7c-1.4,0.3-2.8,0.5-4.3,0.6l-2.3,0.2
	l-1.3,0.1c-0.3,0-0.5,0-0.8,0c-1,0-2.5-0.1-4-0.2l-4.9-0.4c-2.3-0.2-4.7-0.8-6.9-1.5c-4.9-1.8-9.5-4.3-13.8-7.3
	c-4.6-3.2-9.1-6.7-13.4-10.4c-2.2-1.9-4.5-3.9-6.8-5.9l-1.8-1.5l-1.6-1.5c-1.1-1-2.2-2-3.3-3c-4.5-4.4-8.8-9.1-12.8-14
	c-4.3-5.2-8.6-10.9-13.5-17.2S342.5,298.1,336.1,291.3z"/>
</svg>
